<?xml version="1.0" encoding="UTF-8"?>
<svg width="193px" height="24px" viewBox="0 0 193 24" version="1.1" xmlns="http://www.w3.org/2000/svg" xmlns:xlink="http://www.w3.org/1999/xlink">
    <!-- Generator: Sketch 41 (35326) - http://www.bohemiancoding.com/sketch -->
    <title>Group 13</title>
    <desc>Created with Sketch.</desc>
    <defs></defs>
    <g id="Page-1" stroke="none" stroke-width="1" fill="none" fill-rule="evenodd">
        <g id="Desktop-HD-Copy-11" transform="translate(-252.000000, -28.000000)">
            <g id="Group-13" transform="translate(252.000000, 28.000000)">
                <path d="M57.68,20 L57.68,3.824 L60.704,3.824 L60.704,20 L57.68,20 Z M64.544,11.936 L70.568,20 L66.752,20 L60.944,11.984 L66.536,3.824 L70.16,3.824 L64.544,11.936 Z M72.752,20 L72.752,7.832 L75.632,7.832 L75.632,20 L72.752,20 Z M72.464,4.184 C72.464,3.7039976 72.6319983,3.29600168 72.968,2.96 C73.3040017,2.62399832 73.7119976,2.456 74.192,2.456 C74.6720024,2.456 75.0799983,2.62399832 75.416,2.96 C75.7520017,3.29600168 75.92,3.7039976 75.92,4.184 C75.92,4.68000248 75.7520017,5.09599832 75.416,5.432 C75.0799983,5.76800168 74.6720024,5.936 74.192,5.936 C73.7119976,5.936 73.3040017,5.76800168 72.968,5.432 C72.6319983,5.09599832 72.464,4.68000248 72.464,4.184 Z M82.376,9.992 L82.376,16.184 C82.376,16.6960026 82.5119986,17.0839987 82.784,17.348 C83.0560014,17.6120013 83.4319976,17.744 83.912,17.744 C84.520003,17.744 85.0799974,17.5760017 85.592,17.24 L85.592,19.712 C85.0319972,19.9840014 84.3120044,20.12 83.432,20.12 C80.8079869,20.12 79.496,18.7920133 79.496,16.136 L79.496,9.992 L77.672,9.992 L77.672,7.832 L79.496,7.832 L79.496,4.904 L82.376,4.904 L82.376,7.832 L85.4,7.832 L85.4,9.992 L82.376,9.992 Z M95.288,12.92 L95.288,12.56 C95.2559998,11.7759961 95.044002,11.1480024 94.652,10.676 C94.259998,10.2039976 93.6880038,9.968 92.936,9.968 C92.2479966,9.968 91.6520025,10.2199975 91.148,10.724 C90.6439975,11.2280025 90.3200007,11.9599952 90.176,12.92 L95.288,12.92 Z M97.256,16.832 L97.256,19.328 C96.4079958,19.8560026 95.184008,20.12 93.584,20.12 C91.6479903,20.12 90.1200056,19.5440058 89,18.392 C87.8799944,17.2399942 87.32,15.7520091 87.32,13.928 C87.32,11.9919903 87.8479947,10.4720055 88.904,9.368 C89.9600053,8.26399448 91.2799921,7.712 92.864,7.712 C94.4480079,7.712 95.7039954,8.1919952 96.632,9.152 C97.5600046,10.1120048 98.024,11.5119908 98.024,13.352 C98.024,13.8000022 97.9680006,14.3759965 97.856,15.08 L90.224,15.08 C90.432001,15.9600044 90.8679967,16.6319977 91.532,17.096 C92.1960033,17.5600023 93.023995,17.792 94.016,17.792 C95.2960064,17.792 96.3759956,17.4720032 97.256,16.832 Z M118.52,4.496 L118.52,7.448 C117.303994,6.74399648 115.960007,6.392 114.488,6.392 C113.015993,6.392 111.788005,6.891995 110.804,7.892 C109.819995,8.892005 109.328,10.2319916 109.328,11.912 C109.328,13.5920084 109.819995,14.927995 110.804,15.92 C111.788005,16.912005 113.071992,17.408 114.656,17.408 C116.176008,17.408 117.471995,17.008004 118.544,16.208 L118.544,19.232 C117.551995,19.8720032 116.160009,20.192 114.368,20.192 C111.967988,20.192 109.988008,19.4360076 108.428,17.924 C106.867992,16.4119924 106.088,14.4080125 106.088,11.912 C106.088,9.46398776 106.859992,7.46800772 108.404,5.924 C109.948008,4.37999228 111.935988,3.608 114.368,3.608 C116.144009,3.608 117.527995,3.90399704 118.52,4.496 Z M126.44,20.192 C124.599991,20.192 123.164005,19.6160058 122.132,18.464 C121.099995,17.3119942 120.584,15.840009 120.584,14.048 C120.584,12.1919907 121.119995,10.660006 122.192,9.452 C123.264005,8.24399396 124.679991,7.64 126.44,7.64 C128.312009,7.64 129.759995,8.22799412 130.784,9.404 C131.808005,10.5800059 132.32,12.071991 132.32,13.88 C132.32,15.7200092 131.804005,17.2319941 130.772,18.416 C129.739995,19.6000059 128.296009,20.192 126.44,20.192 Z M126.44,9.992 C125.527995,9.992 124.828002,10.3679962 124.34,11.12 C123.851998,11.8720038 123.608,12.8159943 123.608,13.952 C123.608,15.0720056 123.855998,16.0079962 124.352,16.76 C124.848002,17.5120038 125.551995,17.888 126.464,17.888 C127.408005,17.888 128.119998,17.5200037 128.6,16.784 C129.080002,16.0479963 129.32,15.1120057 129.32,13.976 C129.32,12.8079942 129.088002,11.8520037 128.624,11.108 C128.159998,10.3639963 127.432005,9.992 126.44,9.992 Z M137.672,7.832 L137.672,9.92 C138.360003,8.43199256 139.607991,7.688 141.416,7.688 C142.632006,7.688 143.591996,8.05599632 144.296,8.792 C145.000004,9.52800368 145.352,10.5679933 145.352,11.912 L145.352,20 L142.472,20 L142.472,12.512 C142.472,11.711996 142.280002,11.108002 141.896,10.7 C141.511998,10.291998 140.992003,10.088 140.336,10.088 C139.583996,10.088 138.952003,10.3799971 138.44,10.964 C137.927997,11.5480029 137.672,12.3839946 137.672,13.472 L137.672,20 L134.792,20 L134.792,7.832 L137.672,7.832 Z M151.232,7.832 L151.232,9.92 C151.920003,8.43199256 153.167991,7.688 154.976,7.688 C156.192006,7.688 157.151996,8.05599632 157.856,8.792 C158.560004,9.52800368 158.912,10.5679933 158.912,11.912 L158.912,20 L156.032,20 L156.032,12.512 C156.032,11.711996 155.840002,11.108002 155.456,10.7 C155.071998,10.291998 154.552003,10.088 153.896,10.088 C153.143996,10.088 152.512003,10.3799971 152,10.964 C151.487997,11.5480029 151.232,12.3839946 151.232,13.472 L151.232,20 L148.352,20 L148.352,7.832 L151.232,7.832 Z M169.232,12.92 L169.232,12.56 C169.2,11.7759961 168.988002,11.1480024 168.596,10.676 C168.203998,10.2039976 167.632004,9.968 166.88,9.968 C166.191997,9.968 165.596003,10.2199975 165.092,10.724 C164.587997,11.2280025 164.264001,11.9599952 164.12,12.92 L169.232,12.92 Z M171.2,16.832 L171.2,19.328 C170.351996,19.8560026 169.128008,20.12 167.528,20.12 C165.59199,20.12 164.064006,19.5440058 162.944,18.392 C161.823994,17.2399942 161.264,15.7520091 161.264,13.928 C161.264,11.9919903 161.791995,10.4720055 162.848,9.368 C163.904005,8.26399448 165.223992,7.712 166.808,7.712 C168.392008,7.712 169.647995,8.1919952 170.576,9.152 C171.504005,10.1120048 171.968,11.5119908 171.968,13.352 C171.968,13.8000022 171.912001,14.3759965 171.8,15.08 L164.168,15.08 C164.376001,15.9600044 164.811997,16.6319977 165.476,17.096 C166.140003,17.5600023 166.967995,17.792 167.96,17.792 C169.240006,17.792 170.319996,17.4720032 171.2,16.832 Z M176.912,13.952 C176.944,15.1040058 177.291997,16.0319965 177.956,16.736 C178.620003,17.4400035 179.519994,17.792 180.656,17.792 C181.648005,17.792 182.567996,17.5200027 183.416,16.976 L183.416,19.472 C182.567996,19.9680025 181.512006,20.216 180.248,20.216 C178.375991,20.216 176.860006,19.6240059 175.7,18.44 C174.539994,17.2559941 173.96,15.760009 173.96,13.952 C173.976,12.1759911 174.555994,10.6800061 175.7,9.464 C176.844006,8.24799392 178.40799,7.64 180.392,7.64 C181.576006,7.64 182.583996,7.86399776 183.416,8.312 L183.416,10.856 C182.615996,10.3439974 181.704005,10.088 180.68,10.088 C179.559994,10.088 178.656003,10.4399965 177.968,11.144 C177.279997,11.8480035 176.928,12.7839942 176.912,13.952 Z M189.392,9.992 L189.392,16.184 C189.392,16.6960026 189.527999,17.0839987 189.8,17.348 C190.072001,17.6120013 190.447998,17.744 190.928,17.744 C191.536003,17.744 192.095997,17.5760017 192.608,17.24 L192.608,19.712 C192.047997,19.9840014 191.328004,20.12 190.448,20.12 C187.823987,20.12 186.512,18.7920133 186.512,16.136 L186.512,9.992 L184.688,9.992 L184.688,7.832 L186.512,7.832 L186.512,4.904 L189.392,4.904 L189.392,7.832 L192.416,7.832 L192.416,9.992 L189.392,9.992 Z" id="Kite-Connect" fill="#222222"></path>
                <g id="Group">
                    <g id="Page-1">
                        <polygon id="Fill-1" fill="#F33D2C" points="11.9597916 1.25654442e-05 -1.25874139e-05 11.9388188 11.9597916 23.8778764 23.9197217 11.9389445"></polygon>
                        <polygon id="Fill-2" fill="#F33D2C" points="11.9591119 0.000691099475 23.9189161 11.939623 35.8787203 0.000691099475"></polygon>
                        <polygon id="Fill-3" fill="#DB342C" points="11.9596783 23.8788691 35.8792867 23.8788691 23.9194825 11.9399372"></polygon>
                    </g>
                </g>
            </g>
        </g>
    </g>
</svg>